<svg version="1.2" xmlns="http://www.w3.org/2000/svg" viewBox="0 0 452 240" width="452" height="240"><defs><linearGradient id="P" gradientUnits="userSpaceOnUse"/><linearGradient id="g1" x2="1" href="#P" gradientTransform="matrix(144.328,0,0,123.304,251.054,53.82)"><stop stop-color="#5a3a0e"/><stop offset=".18" stop-color="#c89a3a"/><stop offset=".42" stop-color="#fff"/><stop offset=".72" stop-color="#e0b45a"/><stop offset="1" stop-color="#8b5a1e"/></linearGradient><linearGradient id="g2" x2="1" href="#P" gradientTransform="matrix(71.099,123.148,-153.428,88.581,140.177,29.944)"><stop stop-color="#5a3a0e"/><stop offset=".18" stop-color="#c89a3a"/><stop offset=".42" stop-color="#fff"/><stop offset=".72" stop-color="#e0b45a"/><stop offset="1" stop-color="#8b5a1e"/></linearGradient><linearGradient id="g3" x2="1" href="#P" gradientTransform="matrix(8.619,0,0,84.304,61.298,147.32)"><stop stop-color="#5a3a0e"/><stop offset=".18" stop-color="#c89a3a"/><stop offset=".42" stop-color="#fff"/><stop offset=".72" stop-color="#e0b45a"/><stop offset="1" stop-color="#8b5a1e"/></linearGradient><linearGradient id="g4" x2="1" href="#P" gradientTransform="matrix(16.487,28.556,-24.397,14.086,218.122,99.482)"><stop stop-color="#5a3a0e"/><stop offset=".18" stop-color="#c89a3a"/><stop offset=".42" stop-color="#f6d77a"/><stop offset=".72" stop-color="#e0b45a"/><stop offset="1" stop-color="#8b5a1e"/></linearGradient><linearGradient id="g5" x2="1" href="#P" gradientTransform="matrix(17.998,0,0,25.707,392.083,110.918)"><stop stop-color="#5a3a0e"/><stop offset=".18" stop-color="#c89a3a"/><stop offset=".42" stop-color="#f6d77a"/><stop offset=".72" stop-color="#e0b45a"/><stop offset="1" stop-color="#8b5a1e"/></linearGradient><linearGradient id="g6" x2="1" href="#P" gradientTransform="matrix(54.02,0,0,15.64,365.8,84.22)"><stop stop-color="#5a3a0e"/><stop offset=".18" stop-color="#c89a3a"/><stop offset=".42" stop-color="#f6d77a"/><stop offset=".72" stop-color="#e0b45a"/><stop offset="1" stop-color="#8b5a1e"/></linearGradient><linearGradient id="g7" x2="1" href="#P" gradientTransform="matrix(30.72,0,0,5.29,394.06,143.35)"><stop stop-color="#5a3a0e"/><stop offset=".18" stop-color="#c89a3a"/><stop offset=".42" stop-color="#f6d77a"/><stop offset=".72" stop-color="#e0b45a"/><stop offset="1" stop-color="#8b5a1e"/></linearGradient><linearGradient id="g8" x2="1" href="#P" gradientTransform="matrix(38.904,0,0,20.241,26.776,91.169)"><stop stop-color="#5a3a0e"/><stop offset=".18" stop-color="#c89a3a"/><stop offset=".42" stop-color="#f6d77a"/><stop offset=".72" stop-color="#e0b45a"/><stop offset="1" stop-color="#8b5a1e"/></linearGradient><linearGradient id="g9" x2="1" href="#P" gradientTransform="matrix(31.917,-55.301,137.172,79.169,70.318,89.473)"><stop stop-color="#5a3a0e"/><stop offset=".18" stop-color="#c89a3a"/><stop offset=".42" stop-color="#f6d77a"/><stop offset=".72" stop-color="#e0b45a"/><stop offset="1" stop-color="#8b5a1e"/></linearGradient><linearGradient id="g10" x2="1" href="#P" gradientTransform="matrix(8.14,14.117,-12.322,7.105,153.288,179.348)"><stop stop-color="#5a3a0e"/><stop offset=".18" stop-color="#c89a3a"/><stop offset=".42" stop-color="#fff"/><stop offset=".72" stop-color="#e0b45a"/><stop offset="1" stop-color="#8b5a1e"/></linearGradient><linearGradient id="g11" x2="1" href="#P" gradientTransform="matrix(8.232,14.25,-11.497,6.642,165.314,179.434)"><stop stop-color="#5a3a0e"/><stop offset=".18" stop-color="#c89a3a"/><stop offset=".42" stop-color="#fff"/><stop offset=".72" stop-color="#e0b45a"/><stop offset="1" stop-color="#8b5a1e"/></linearGradient><linearGradient id="g12" x2="1" href="#P" gradientTransform="matrix(6.306,-10.93,7.267,4.192,203.248,219.881)"><stop stop-color="#5a3a0e"/><stop offset=".18" stop-color="#c89a3a"/><stop offset=".42" stop-color="#fff"/><stop offset=".72" stop-color="#e0b45a"/><stop offset="1" stop-color="#8b5a1e"/></linearGradient><linearGradient id="g13" x2="1" href="#P" gradientTransform="matrix(8.55,14.806,-13.883,8.017,183.054,179.602)"><stop stop-color="#5a3a0e"/><stop offset=".18" stop-color="#c89a3a"/><stop offset=".42" stop-color="#fff"/><stop offset=".72" stop-color="#e0b45a"/><stop offset="1" stop-color="#8b5a1e"/></linearGradient><linearGradient id="g14" x2="1" href="#P" gradientTransform="matrix(9.164,15.879,-13.042,7.527,195.125,179.278)"><stop stop-color="#5a3a0e"/><stop offset=".18" stop-color="#c89a3a"/><stop offset=".42" stop-color="#fff"/><stop offset=".72" stop-color="#e0b45a"/><stop offset="1" stop-color="#8b5a1e"/></linearGradient><linearGradient id="g15" x2="1" href="#P" gradientTransform="matrix(7.682,-13.274,13.801,7.987,211.936,205.971)"><stop stop-color="#5a3a0e"/><stop offset=".18" stop-color="#c89a3a"/><stop offset=".42" stop-color="#fff"/><stop offset=".72" stop-color="#e0b45a"/><stop offset="1" stop-color="#8b5a1e"/></linearGradient><linearGradient id="g16" x2="1" href="#P" gradientTransform="matrix(8.158,14.109,-12.321,7.124,228.373,179.339)"><stop stop-color="#5a3a0e"/><stop offset=".18" stop-color="#c89a3a"/><stop offset=".42" stop-color="#fff"/><stop offset=".72" stop-color="#e0b45a"/><stop offset="1" stop-color="#8b5a1e"/></linearGradient><linearGradient id="g17" x2="1" href="#P" gradientTransform="matrix(9.396,16.279,-16.279,9.396,239.442,179.483)"><stop stop-color="#5a3a0e"/><stop offset=".18" stop-color="#c89a3a"/><stop offset=".42" stop-color="#fff"/><stop offset=".72" stop-color="#e0b45a"/><stop offset="1" stop-color="#8b5a1e"/></linearGradient><linearGradient id="g18" x2="1" href="#P" gradientTransform="matrix(8.478,-14.674,13.387,7.734,256.049,205.366)"><stop stop-color="#5a3a0e"/><stop offset=".18" stop-color="#c89a3a"/><stop offset=".42" stop-color="#fff"/><stop offset=".72" stop-color="#e0b45a"/><stop offset="1" stop-color="#8b5a1e"/></linearGradient><linearGradient id="g19" x2="1" href="#P" gradientTransform="matrix(8.084,-13.967,11.126,6.44,269.349,205.385)"><stop stop-color="#5a3a0e"/><stop offset=".18" stop-color="#c89a3a"/><stop offset=".42" stop-color="#fff"/><stop offset=".72" stop-color="#e0b45a"/><stop offset="1" stop-color="#8b5a1e"/></linearGradient><linearGradient id="g20" x2="1" href="#P" gradientTransform="matrix(6.306,-10.93,7.267,4.192,306.558,219.897)"><stop stop-color="#5a3a0e"/><stop offset=".18" stop-color="#c89a3a"/><stop offset=".42" stop-color="#fff"/><stop offset=".72" stop-color="#e0b45a"/><stop offset="1" stop-color="#8b5a1e"/></linearGradient><linearGradient id="g21" x2="1" href="#P" gradientTransform="matrix(9.476,16.417,-13.861,8,285.577,179.522)"><stop stop-color="#5a3a0e"/><stop offset=".18" stop-color="#c89a3a"/><stop offset=".42" stop-color="#fff"/><stop offset=".72" stop-color="#e0b45a"/><stop offset="1" stop-color="#8b5a1e"/></linearGradient><linearGradient id="g22" x2="1" href="#P" gradientTransform="matrix(8.454,-14.672,13.38,7.71,302.19,205.346)"><stop stop-color="#5a3a0e"/><stop offset=".18" stop-color="#c89a3a"/><stop offset=".42" stop-color="#fff"/><stop offset=".72" stop-color="#e0b45a"/><stop offset="1" stop-color="#8b5a1e"/></linearGradient><linearGradient id="g23" x2="1" href="#P" gradientTransform="matrix(7.742,-13.424,11.588,6.684,316.912,205.807)"><stop stop-color="#5a3a0e"/><stop offset=".18" stop-color="#c89a3a"/><stop offset=".42" stop-color="#fff"/><stop offset=".72" stop-color="#e0b45a"/><stop offset="1" stop-color="#8b5a1e"/></linearGradient><linearGradient id="g24" x2="1" href="#P" gradientTransform="matrix(17.854,0,0,42.52,233.189,136.86)"><stop stop-color="#5a3a0e"/><stop offset=".22" stop-color="#c89a3a"/><stop offset=".51" stop-color="#f6d77a"/><stop offset=".79" stop-color="#e0b45a"/><stop offset="1" stop-color="#8b5a1e"/></linearGradient><linearGradient id="g25" x2="1" href="#P" gradientTransform="matrix(3.54,0,0,32.889,238.16,130.24)"><stop stop-color="#5a3a0e"/><stop offset=".18" stop-color="#c89a3a"/><stop offset=".42" stop-color="#fff"/><stop offset=".72" stop-color="#e0b45a"/><stop offset="1" stop-color="#8b5a1e"/></linearGradient><linearGradient id="g26" x2="1" href="#P" gradientTransform="matrix(8.16,-8.16,8.16,8.16,412.25,86.16)"><stop stop-color="#7a0019"/><stop offset=".33" stop-color="#b11226"/><stop offset=".68" stop-color="#e63946"/><stop offset="1" stop-color="#ffd1d6"/></linearGradient><linearGradient id="g27" x2="1" href="#P" gradientTransform="matrix(8.16,-8.16,8.16,8.16,413.73,92.46)"><stop stop-color="#004b2a"/><stop offset=".36" stop-color="#007f4e"/><stop offset=".7" stop-color="#1dbf73"/><stop offset="1" stop-color="#a6f4c5"/></linearGradient><linearGradient id="g28" x2="1" href="#P" gradientTransform="matrix(5.573,-9.653,9.653,5.573,414.277,101.16)"><stop stop-color="#0a1b4d"/><stop offset=".34" stop-color="#123c8c"/><stop offset=".66" stop-color="#2f6bff"/><stop offset="1" stop-color="#cfe1ff"/></linearGradient><linearGradient id="g29" x2="1" href="#P" gradientTransform="matrix(6.518,-9.309,9.309,6.518,412.856,107.915)"><stop stop-color="#7a4a00"/><stop offset=".35" stop-color="#b87400"/><stop offset=".68" stop-color="#f2b705"/><stop offset="1" stop-color="#ffe6a3"/></linearGradient><linearGradient id="g30" x2="1" href="#P" gradientTransform="matrix(7.39,-8.806,8.806,7.39,408.612,113.148)"><stop stop-color="#3d0c5a"/><stop offset=".35" stop-color="#6a1b9a"/><stop offset=".7" stop-color="#9c4dcc"/><stop offset="1" stop-color="#e8d6ff"/></linearGradient><linearGradient id="g31" x2="1" href="#P" gradientTransform="matrix(8.16,-8.16,8.16,8.16,403.35,118.36)"><stop stop-color="#003e44"/><stop offset=".34" stop-color="#007c82"/><stop offset=".66" stop-color="#3ddad7"/><stop offset="1" stop-color="#d6ffff"/></linearGradient></defs><style>.a{fill:url(#g1)}.b{fill:url(#g2)}.c{fill:url(#g3)}.d{fill:url(#g4)}.e{fill:url(#g5)}.f{fill:url(#g6)}.g{fill:url(#g7)}.h{fill:url(#g8)}.i{fill:url(#g9)}.j{fill:url(#g10)}.k{fill:url(#g11)}.l{fill:url(#g12)}.m{fill:url(#g13)}.n{fill:url(#g14)}.o{fill:url(#g15)}.p{fill:url(#g16)}.q{fill:url(#g17)}.r{fill:url(#g18)}.s{fill:url(#g19)}.t{fill:url(#g20)}.u{fill:url(#g21)}.v{fill:url(#g22)}.w{fill:url(#g23)}.x{fill:none;stroke:url(#g24);stroke-miterlimit:10}.y{fill:url(#g25)}.z{fill:url(#g26)}.A{fill:url(#g27)}.B{fill:url(#g28)}.C{fill:url(#g29)}.D{fill:url(#g30)}.E{fill:url(#g31)}.F{fill:#e4accb}.G{fill:#3dd8d7}.H{fill:#f2d044}.I{fill:#2f6bff}.J{fill:#1dbf73}.K{fill:#eb3e26}</style><path fill-rule="evenodd" class="a" d="m272.3 115.8c2.4-10.9 4.4-22 9.1-32.3 1.1-2.6 2.8-5.1 4.5-7.4 1.2-1.5 3-2.7 5-1.9 2.1 0.8 2.7 3 2.3 5-1 4.6-1.9 9.4-3.5 13.9-1.6 4.2-4.1 8.2-6 12.1 2.2-0.7 4.7-1.9 7.2-2.3 9.8-1.3 14.2 3.4 16 12.6 0.5 2.5 0.5 5.1 0.8 7.9 4.1-1.3 8.2-2.6 12.2-4 0.5-0.2 0.7-1 1-1.6 0.8-1.4 1.3-3.1 2.5-4.2 0.9-0.8 2.9-1.3 3.9-0.8 0.8 0.3 1.2 2.5 1 3.7-0.5 2.6-2.8 3.3-5.4 3.6-0.2 1.9-0.6 3.8-0.6 5.6 0.1 3.2 1.9 4.4 4.7 3 2.3-1.2 4.5-2.7 6.3-4.5 2.6-2.5 4.7-5.5 7.3-8.1 2.6-2.6 5.7-4.2 9.6-2.8 0.3 0.1 0.8-0.2 1.2-0.3q0.9-0.3 1.9-0.5c0.1 0.7 0.5 1.4 0.4 2.1-0.1 2.8-0.5 5.5-0.5 8.3 0 1.1 0.5 2.8 1.4 3.1 0.8 0.4 2.6 0 3.3-0.8 2.1-1.9 3.7-4.3 5.6-6.4 1.8-2 3.5-4.3 5.6-5.9 3-2.3 6.2-1.2 7.7 2.4 3.2-5.4 6.5-10.5 7.4-16.8 1.1-7.6 2.7-15.2 4.3-22.8 0.3-1.3 1.4-2.5 2.1-3.8h1c0.3 1.3 0.9 2.5 1 3.8 0.4 6.9-1.5 13.5-4.1 19.8-1.4 3.4-2.1 6.9-2.5 10.5-0.8 9.4-1 18.8 0 28.2 0.1 1.3 0.6 2.1 2 2.5 2.3 0.5 4.5 1.2 6.7 1.8-0.1 0.3 0.7 0.8 0.7 1-2.5-0.5-5.9-1.3-8.7-1.9 0.3 3.4 1.2 6.1 3 8.6 0.5 0.7 0.6 1.7 0.6 2.5 0 0.4-1.2 1.1-1.4 0.9-0.8-0.4-1.8-1.1-2.1-1.9-0.9-2.8-1.7-5.7-2.2-8.6-0.4-1.9-1.4-2.5-3.1-2.6-9.4-0.8-18.9-2.2-28.4-2.1-15.5 0.1-31 1.3-46.5 2-1.6 0.1-2.4 0.7-3 2.1-3.9 9.3-9.8 17.3-17 24.2-6.5 6.3-13.7 11.8-22.8 14-5.8 1.4-10.5-0.8-12.1-5.8-1.1-3.2-0.7-6.4 0.7-9.4 2.9-5.9 7.2-10.7 12.1-14.8 2.6-2.1 4-4.1 4.1-7.7 0.3-13.6 1-27.1 1.9-40.6 0.6-10.4 1.8-20.8 2.6-31.2 0.1-1.4-0.6-2.8-0.7-4.2-0.1-1.1-0.1-2.4 0.3-3.4 0.4-1.5 1.1-3 2-4.3 0.3-0.7 1.2-1 1.9-1.5 0.2 0.8 0.8 1.7 0.8 2.5-0.4 3.3-1.1 6.7-1.4 10.1q-1.6 16.8-2.8 33.6c-0.4 5.2-0.6 10.5-0.9 15.8zm3.5-5.4c-0.6 3-0.4 2.1-0.6 3-0.7 4.9-1.5 9.7-2 14.6-0.5 4-0.8 7.9-1.2 12.5 2.2-1.4 3.7-2.4 5.3-3.4 8.2-4.9 16.8-8.9 25.7-12.2 0.7-0.2 1.6-1.2 1.6-1.8 0-3.3 0-6.6-0.6-9.7-1.3-7.2-5.7-10-12.9-8.8-3.4 0.5-6.2 2.2-8.7 4.5-1.3 1.2-2.4 2.5-3.7 3.6-0.5 0.4-1.4 0.3-2.1 0.4q-0.1-1.1-0.2-2.3c0.1-0.3 0.1-0.6 0.3-0.8 6.2-7.4 10.4-15.8 12.9-25.1 0.7-2.3 0.8-4.8 0.7-7.2 0-1.9-1.5-2.5-2.9-1.1-1.3 1.3-2.5 2.9-3.3 4.5-4.2 8.8-6.2 18.3-8 27.7-0.1 0.6-0.2 1.1-0.3 1.7zm-7.4 35.7q-0.4-0.2-0.7-0.5c-2.9 2.9-5.9 5.7-8.6 8.8-2.9 3.4-5.5 7-6.1 11.8-0.5 4.3 2.1 8 6.4 7.9 3.1-0.2 6.4-0.8 9.1-2.1 12.5-5.8 21.5-15.4 28.7-26.9 1.5-2.4 2.6-5 4.3-8.2-9.2 1.2-17.8 2.3-26.3 3.6-1.9 0.3-3.4 1.7-3.6 4.2-0.2 4.5-0.7 9-1.3 13.5 0 0.6-0.8 1.1-1.2 1.6-0.5-0.5-1.3-1-1.5-1.7-0.3-0.7-0.1-1.5-0.1-2.3 0.3-3.3 0.6-6.5 0.9-9.7zm36.7-10.6c26.3-2.5 52.4-3.9 78.2 0.1v-27.9c-1.5 2.4-2.7 4.7-4.1 6.9-2.7 4.3-5.6 8.5-9.9 11.3-3.9 2.5-5.5 2-7.4-1.9-1.3 1-2.5 2.1-3.9 3.1-3.7 2.5-7 1.1-7.7-3.4-0.2-1.5-0.1-3.1-0.2-4.8-1.4 1.8-2.6 3.5-4 5-3.5 4-6.4 3.8-9.8-0.7-0.5 0.7-0.8 1.4-1.4 1.9-2.4 1.9-4.6 4-7.2 5.4-4.4 2.3-7.7 0.1-8-4.8-0.1-1.3 0-2.5 0-4.1-3.9 1.2-7.7 2.4-11.4 3.6-0.5 0.2-0.9 0.9-1.1 1.4-0.7 2.8-1.3 5.7-2.1 8.8zm-0.6-9c-9.6 3.4-18.3 7-26.4 12.2 7.4-0.7 14.7-1.6 22-2.6 0.7-0.1 1.7-0.5 1.9-1.1 0.9-2.5 1.6-5.2 2.5-8.5zm71.1-9.5q0 0 0 0 0 0 0 0zm-1.8-0.9c-1.5-2.5-3.3-1.2-4.4 0-1.7 1.8-3.1 3.9-4.3 6.1-0.4 0.6-0.1 1.9 0.4 2.5 0.4 0.4 1.7 0.2 2.4-0.1 3.5-1.5 5.8-4.2 7.7-7.6-0.7-0.3-1.5-0.5-1.8-0.9zm-24.3 1q-0.2-0.7-0.3-1.3c-1.2 0-2.7-0.6-3.4-0.1-1.9 1.5-3.6 3.3-5 5.2-0.6 0.8-0.1 2.3-0.1 3.5 1.2-0.3 2.6-0.3 3.3-1 2-1.9 3.7-4.2 5.5-6.3zm37.9-25q0 0 0 0zm0.7 0.1q1.4-6.5 2.9-12.9-0.5-0.1-0.9-0.2-1.3 6.5-2.6 13h-0.1q0.4 0 0.7 0.1zm-62.1 22.2c-0.9 1.2-1.6 2.3-2.6 3.8 3.1-0.8 3.6-1.6 2.6-3.8z"/><path fill-rule="evenodd" class="b" d="m83.6 127.4c1.8-4.1 3.4-8.3 5.3-12.4 0.9-2 1.9-4.5 4.6-4 2.8 0.6 2.5 3.3 2.7 5.4 0.3 2.6 0.4 5.3 1 7.8 0.3 1.3 1.3 3 2.4 3.4 1.1 0.3 2.9-0.6 3.9-1.5 1.4-1.4 2.4-3.1 3.3-4.8 0.3-0.4-0.1-1.3-0.4-1.8-1-1.7-1.1-3.4 0.2-4.8 0.7-0.7 2.3-1.4 2.8-1 0.7 0.5 1 1.9 1.3 2.9 0.1 0.7-0.2 1.4-0.3 2 5.3 1.5 5.2 1.5 5.8 7.1 0.2 1.5 0.5 3.1 0.9 4.6 0.2 0.8 0.8 1.9 1.3 1.9 0.7 0.1 1.7-0.6 2.1-1.2 1.5-2.5 3-5 4.3-7.6 1.3-2.8 2.4-5.7 3.7-8.4 0.8-1.6 2-3.1 4.1-2.6 0.8 0.2 1.8 1.1 2 1.9 0.6 1.9-0.3 3.5-1.8 4.5-1 0.7-2.3 1.1-3.8 1.7-0.1 1.5-0.5 3.4-0.4 5.3 0 3.2 1.7 4.4 4.6 2.9 2.5-1.3 4.8-3.1 6.9-5 1.8-1.5 3.1-3.5 4.6-5.3 3.1-3.8 6.5-6.8 11.9-5 0.2 0.1 0.5-0.1 0.8-0.2q1-0.3 2-0.7c0.2 0.8 0.5 1.5 0.5 2.2-0.1 3.1-0.6 6.2-0.4 9.2 0.1 2.6 1.8 3.4 3.9 1.8 2.3-1.8 4.1-4.3 6.1-6.5 1.7-2 3.2-4.3 5.2-6 3.1-2.5 6.3-1.7 8.4 2 3.4-5.7 6.8-11 7.4-17.7 0.7-7.5 1.7-15 4.4-22.1 0.4-1.2 1.3-2.3 2.2-3.7 2.1 2.2 1.7 4.6 1.6 6.7-0.2 6.4-1.8 12.5-4.5 18.3-1.9 4.1-1.8 8.5-2.2 12.8-1 9.4-0.7 18.8 0.7 28.2 0.2 1.8 1 2.2 2.6 2.3 3.6 0.3 7.2 0.6 10.9 0.9 0.6 0.1 1.2 0.3 1.8 0.5q0 0.3-0.1 0.7c-4.6-0.4-9.3-0.7-14.7-1.1 1.1 2.1 1.9 3.7 2.8 5.2 0.8 1.3 1.2 2.7-0.4 3.3-0.6 0.2-2-1-2.6-1.9-0.8-1.1-1.2-2.4-1.4-3.7-0.7-3.4-0.6-3.4-4-3.5-12.9-0.4-25.8-1.1-38.7-1.1-20.4 0.1-40.7 1.8-60.4 7.8-6.3 1.9-12.2 5.1-18.3 7.6-0.3 0.1-0.6 0.2-0.8 0.3q-0.2-0.3-0.4-0.6c0.7-0.4 1.2-0.9 1.9-1.3 7.4-4.3 15.5-6.9 23.7-8.9 16.2-3.8 32.7-5.8 49.3-5.8 14.5 0 29.1 0.6 43.7 1 0.9 0 1.8 0 2.4 0-0.3-10.3-0.7-20.6-1-30.5-2.1 3.2-4.2 7-6.8 10.3-2.2 2.7-4.7 5.2-7.5 7.1-3.4 2.2-4.9 1.4-6.5-2.3-1.7 1.2-3.3 2.6-5.1 3.6-3.1 1.7-5.8 0.3-6.4-3.2-0.3-1.8-0.2-3.6-0.3-5.5-1.6 1.9-3 3.8-4.6 5.5-3.4 3.6-6.3 3.2-8.8-0.8-2.3 1.9-4.7 3.9-7.1 5.8-0.9 0.6-1.9 1.1-3 1.5-3.6 1.2-5.8 0-6.7-3.7-0.2-0.4-0.3-0.8-0.6-1.6-1 1.8-1.8 3.3-2.8 4.8-0.6 1-1.2 2.1-2.1 2.7-1.1 0.8-2.6 1.6-3.7 1.4-0.9-0.2-1.9-1.8-2.2-2.9-0.6-2.6-1-5.3-1.2-8-0.1-1.9-1.4-2-2.8-2.4-1.5-0.5-2.1 0.1-2.8 1.3-1 1.6-2 3.2-3.2 4.6-1.7 2-3.9 3.9-6.6 3-2.6-0.9-3.5-3.5-3.8-6.1-0.4-2.7-0.5-5.5-0.9-8.3-0.1-0.7-0.7-1.3-1.1-2-0.5 0.5-1.2 0.9-1.5 1.5-2.4 5.5-4.7 11.1-7 16.6-0.2 0.5-0.3 1.1-0.6 1.5-0.3 0.5-0.8 0.8-1.2 1.2-0.4-0.6-1-1.1-1.1-1.6-0.1-2.2 0-4.3-0.1-6.4-0.2-12.8 0.5-25.5 2-38.2 0.2-1.6 0.6-3.1 0.7-4.7 0.2-1.7 1.1-3.4-0.1-5.2-0.8-1.2 1.6-6.5 2.9-7.1 1.7-0.8 1.7 0.5 1.6 1.5-0.2 2.4-0.7 4.8-0.9 7.3-1.2 11.2-2.3 22.5-3.3 33.8-0.4 4.4-0.5 8.9-0.7 13.4h0.5c0 0 0 0.1 0 0.1zm98.8-9.8c-1.4-1-2.2-1.3-2.6-1.9-1-1.5-2.4-1.2-3.2-0.4-1.9 2-3.7 4.3-5.3 6.6-0.4 0.6-0.1 2.2 0.4 2.7 0.5 0.4 2.1 0.3 2.7-0.2 2.7-2.1 5.2-4.4 8-6.8zm-26.5-0.4q-0.2-0.5-0.3-1c-1-0.3-2.2-1.1-2.9-0.9-3.1 1.2-5.2 3.5-6.2 6.8-0.2 0.7 0 1.9 0.5 2.3 0.4 0.4 1.8 0.2 2.3-0.3 2.3-2.2 4.4-4.6 6.6-6.9zm41.4-38.4q-0.5-0.1-0.9-0.1-1.2 5.8-2.4 11.7 0.4 0.1 0.8 0.1 1.3-5.8 2.5-11.7zm-65.1 35.9l-2.3 3c2 0 3.1-0.8 2.3-3z"/><path class="c" d="m61.4 71.5c-0.4-2.9 1-6 2.8-8 1.3-1.3 2.6-0.5 3.5 0.9 2.1 3.2 2.4 6.8 2.2 10.5q-1 16.9-1.9 33.7-1 18.7-2 37.4c0 0.5-0.2 0.9-0.5 1.3-0.3-3-0.5-6-0.7-9-0.5-10.4-0.9-20.7-1.5-31.1-0.5-10.3-1.4-24.6-1.9-34.9-0.1-1.4 0-1.5 2.9-1.1 0.5 2.6 0.2 6.8 0.6 9.3h0.1c0.9 0 1.6-0.7 1.7-1.5v-0.1c0.2-3.1 0.4-6.3 0.5-9.4 0-0.6-0.3-1.7-1.3-1.8-0.8 0.1-1.6 0.9-1.6 1.6v1.9c-0.2-0.2-2.7 0.5-2.9 0.3z"/><path fill-rule="evenodd" class="d" d="m210.8 126.7c0.2 2.2 0.6 4 0.6 5.7-0.1 2.2-1.6 3.6-3.6 4.3-1.7 0.6-4.1-0.4-3.9-2.2 0.2-2.1 1.1-4.1 2.4-6.4-1.4-0.8-3.3-1.8-5.1-3-2.6-1.8-3.2-4.6-2.8-7.6 0.3-2.9 1.8-5 4.5-6.1 2.2-0.9 4.2-0.5 6 1 2 1.6 2.4 3.8 1.8 6-0.1 0.7-1.4 1.4-2.2 1.5-0.4 0-1.1-1.2-1.4-1.9-0.2-0.4 0.3-1.1 0.3-1.6 0.2-0.9 0.2-1.7 0.3-2.6-1.1-0.1-2.2-0.6-3.1-0.2-2.2 0.7-3.5 2.5-3.8 4.7-0.3 2.4 0.5 4.2 2.5 5.5q0.4 0.3 0.8 0.6c3.8 2.4 4.2 2.3 7.7-0.4 2.1-1.5 4.3-2.9 6.5-4.4 0.3-0.1 0.7-0.1 0.9 0.2 0.2 0.3 0.2 0.7-0.1 0.9-2.9 2.1-5.8 4.2-8.3 6zm-5 7.7c3.5-1.1 4.2-3 2.3-5.5-0.8 1.9-2 3.3-2.3 5.5z"/><path fill-rule="evenodd" class="e" d="m410.1 121.1q-0.1 0.1-0.1 0.1 0 0 0-0.1zm-4 4.7c-0.5 0.6-1.2 1-1.8 1.5 1.7 4 1.5 6.6-1.1 8.5-0.8 0.6-2.5 1.1-3.3 0.7-0.8-0.5-1.4-2.2-1.3-3.2 0.3-1.7 1.3-3.4 1.8-4.8-2.2-1.6-4.6-3.1-6.6-5-2.2-1.9-2.2-6.8-0.4-9.2 2.2-3.1 4.9-4.1 7.9-2.9 3 1.3 4.4 4.3 3.2 7.3-0.3 0.6-1.4 1.3-1.9 1.2-0.7-0.2-1.3-1-1.6-1.7-0.2-0.5 0.3-1.2 0.4-1.8 0.1-0.9 0.4-2.4 0.2-2.5-0.9-0.4-2.2-0.6-3.1-0.3-2.2 0.7-3.4 2.5-3.7 4.7-0.4 2.2 0.3 4 2.1 5.2 1.5 0.9 3 1.7 4.6 2.4 0.5 0.3 1.4 0.1 1.8-0.2 1.4-1.1 4.3-4.3 5.7-5.3 0.6-0.4 0.4 0.9 1 0.8-1.1 1.4-2.8 3.2-3.9 4.6zm-6.2 8q0.3 0.2 0.8 0.4c2.5-1.1 3.2-2.6 1.4-5.4-0.8 1.9-1.5 3.5-2.2 5z"/><path class="f" d="m419.8 82.2c-1.9 1.6-2.2-0.3-2.7-1-4.9-7-11.7-10.6-20.3-10.9-6.6-0.2-12.6 1.9-18.1 5.5-3.5 2.2-6.7 5-10.1 7.4-0.6 0.5-1.4 0.7-2.2 1q-0.3-0.5-0.6-1.1c3.5-2.6 6.8-5.4 10.4-7.8 6-4 12.5-6.7 19.7-6.7 10.4 0 18.4 4.4 23.9 13.6q0 0 0 0z"/><path class="g" d="m412.9 142.4c-5.6-0.7-11.1-2.2-16.6-3.3-0.6-0.1-1.2-0.4-1.7-0.6q-0.1 0.1-0.2 0c0 0-0.1 0-0.2 0q-0.1 0.2-0.1 0.4c0.1 0.1 0.2 0.3 0.4 0.4 6.5 2.4 13.1 4.2 20.1 4 3.3 0 6.5-0.7 8.9-3.2 0.5-0.6 0.9-1.4 1.3-2-3.2 3.8-7.4 5-11.9 4.3z"/><path class="h" d="m50.2 79.3c2.5 1.2 4.7 3 6.3 5.2 1.8 2.4-0.7 3.6-2.6 4.4-3.5 1.8-7.4 1.8-11.2 1.4-4.3-0.4-8.7-1.4-12.2-3.9-1.4-1-3.9-2.8-2.1-4.4 1.6-1.3 3.8-2.1 5.7-2.9q3.1-1.1 6.3-1.7c4.3-0.8 8.6-1.9 12.9-2.7 3.7-0.8 7.7-1.6 11.8-2.4 0.3 0 0.6-0.3 0.6-0.7 0-0.4-0.4-0.7-0.9-0.7-4.1 0.9-8.1 1.7-11.8 2.4-4.3 0.9-8.5 2-12.8 2.9-3.3 0.6-6.5 1.7-9.5 3.2-2.1 1.1-5.2 2.7-3.4 5.4 0.7 1 1.7 1.7 2.7 2.3 2.7 2 6 3 9.3 3.5 4.9 0.8 10.2 1.1 14.7-1.3 2.2-1 4.7-2.4 2.7-5-1.7-2.1-3.9-3.9-6.5-5z"/><path class="i" d="m103.2 58.4c-2.9-1.9-6.1-3-9.3-4.1-6.4-1.9-12.9-2.8-19.4-4.1-9.1-1.8-18.6-3.2-27.6-5.1-1.6-0.3-3.3-0.6-4.8-1-2.1-0.4-5-1.5-2-3.4 1.9-1.1 4-1.9 6-2.8q3-1.2 6.1-2.3c-3.1 0.9-6.2 2.1-9.3 3.3-1.5 0.7-3.1 1.2-4.3 2.5q0 0.1-0.1 0.2c-1 1.8 2.1 2.7 3.4 3 1.6 0.4 3.3 0.9 4.9 1.2 6.8 1.6 14.2 2.8 21 4.2 4.5 0.8 14.8 3.1 19.4 4 4.2 0.9 8.4 2.1 12.4 4 1.3 0.6 2.8 1.3 3.7 2.5 0.5 0.9-1.9 1.8-2.7 2.2-3 1.3-6.1 2.2-9.3 2.8-2.1 0.3-4.4 0.7-6.5 1.2-4.3 0.9-9 1.9-13.8 2.9-0.4 0.1-0.6 0.4-0.6 0.7 0 0.5 0.4 0.8 0.9 0.7 5.8-1.2 11.7-2.4 17-3.5 1.1-0.2 2.1-0.4 3.3-0.6 3.3-0.5 6.5-1.5 9.6-2.9 1.1-0.5 2.1-0.9 3-1.9 1.3-1.4 0.1-2.9-1-3.7z"/><path fill-rule="evenodd" class="j" d="m151.8 195c0 2.3-1.7 4-4.4 4h-4.9v-13.4h4c2.9 0 4.6 1.2 4.6 3.5 0 1.3-0.7 2.4-1.6 2.7 1.6 0.4 2.3 1.8 2.3 3.2zm-7.4-4.1h2.4c1.5 0 2.4-0.6 2.4-1.7 0-1.2-0.9-1.7-2.4-1.7h-2.4c0 0 0 3.4 0 3.4zm5.4 4c0-1.4-1-2.1-2.7-2.1h-2.7v4.3h2.7c1.7 0 2.7-0.7 2.7-2.2z"/><path fill-rule="evenodd" class="k" d="m162 199.1l-3.3-4.7h-2.1v4.7h-2v-13.5h4.2c3.5 0 5.1 1.8 5.1 4.3 0 2.1-1.1 3.8-3.1 4.3l3.4 4.8h-2.2zm-5.4-6.5h2.8c1.4 0 2.6-0.8 2.6-2.5 0-1.7-1.1-2.5-2.5-2.5h-2.9c0 0 0 5 0 5z"/><path class="l" d="m167.1 199.1v-13.5h1.9v13.5z"/><path fill-rule="evenodd" class="m" d="m183.6 192.3c0 3.7-2.5 6.7-6.8 6.7h-4.1v-13.4h4.1c4.4 0 6.8 3 6.8 6.7zm-1.9 0c0-2.7-1.8-4.8-4.4-4.8h-2.6v9.6h2.6c2.6 0 4.4-2.1 4.4-4.8z"/><path fill-rule="evenodd" class="n" d="m194.2 196.2h-6.1l-1.3 2.8h-2l6.4-13.7 6.4 13.7h-2.1c0 0-1.3-2.8-1.3-2.8zm-0.9-2l-2.1-4.7-2.2 4.7z"/><path class="o" d="m207.3 197.1v1.9h-7.3v-13.4h1.9v11.5c0 0 5.4 0 5.4 0z"/><path fill-rule="evenodd" class="p" d="m226.9 195c0 2.3-1.7 4-4.4 4h-4.9v-13.4h4c2.9 0 4.6 1.2 4.6 3.5 0 1.3-0.7 2.4-1.6 2.7 1.6 0.4 2.3 1.8 2.3 3.2zm-7.4-4.1h2.4c1.5 0 2.4-0.6 2.4-1.7 0-1.2-0.9-1.7-2.4-1.7h-2.4c0 0 0 3.4 0 3.4zm5.4 4c0-1.4-1-2.1-2.7-2.1h-2.7v4.3h2.7c1.7 0 2.7-0.7 2.7-2.2z"/><path fill-rule="evenodd" class="q" d="m242.9 192.3c0 3.8-3.1 6.9-6.9 6.9-3.8 0-6.9-3.1-6.9-6.9 0-3.8 3.1-6.9 6.9-6.9 3.8 0 6.9 3.1 6.9 6.9zm-1.9 0c0-2.7-2.2-4.9-5-4.9-2.8 0-5 2.2-5 4.9 0 2.8 2.2 5 5 5 2.8 0 5-2.2 5-5z"/><path class="r" d="m255.7 185.6v7.5c0 3.6-1.6 6.1-5.1 6.1-3.5 0-5.1-2.5-5.1-6.1v-7.5h1.9v8.2c0 2 1.2 3.5 3.2 3.5 2 0 3.2-1.5 3.2-3.5v-8.2z"/><path class="s" d="m267.4 185.6v1.9h-3.5v11.6h-2v-11.6h-3.5v-1.9z"/><path class="t" d="m270.4 199.1v-13.5h2v13.5z"/><path fill-rule="evenodd" class="u" d="m286.9 199.1l-0.9-1.1c-1.1 0.8-2.4 1.2-3.9 1.2-3.8 0-6.9-3.1-6.9-6.9 0-3.8 3.1-6.8 6.9-6.8 3.8 0 6.9 3 6.9 6.8 0 1.8-0.6 3.4-1.7 4.6l2 2.2h-2.4zm-2.2-2.5l-2.4-2.7h2.2l1.5 1.6c0.7-0.9 1.1-2 1.1-3.2 0-2.7-2.2-4.9-5-4.9-2.7 0-4.9 2.2-4.9 4.9 0 2.8 2.2 5 4.9 5 1 0 1.8-0.3 2.6-0.7z"/><path class="v" d="m301.8 185.6v7.5c0 3.6-1.6 6.1-5.1 6.1-3.5 0-5.1-2.5-5.1-6.1v-7.5h1.9v8.2c0 2 1.2 3.5 3.2 3.5 2 0 3.2-1.5 3.2-3.5v-8.2h1.9z"/><path class="w" d="m307.1 187.5v3.9h4.8v1.9h-4.8v3.8h5.8v1.9h-7.7v-13.4h7.7v1.9h-5.8z"/><path class="x" d="m249.9 116.4c0 0.2 4.4-9.3-4-12-8-2.6-8.3-6.3-8.3-7 0-0.3 0-3.1 4.9-3.1 4.8 0 6.1 8.4 2.6 13.4-3.8 5.5-9.4 8.4-11.2 14.7-2.5 9.1 2.2 14.4 6.7 14.5 4.5 0 8.8-5.8 7.8-12-1.6-7.5-10.3-14-14.5-19.9-0.9-2.4 0.2-6.4 0-5.8"/><path class="y" d="m238.2 100.7c-0.2-1.2 0.4-2.4 1.2-3.2 0.5-0.5 1-0.2 1.4 0.4 0.8 1.2 1 2.6 0.9 4.1q-0.4 6.5-0.8 13.1-0.4 7.3-0.8 14.6 0 0.3-0.2 0.5-0.2-1.7-0.3-3.5c-0.2-4-0.4-8.1-0.6-12.1-0.2-4-0.6-9.6-0.8-13.6 0-0.6 0-0.6 1.2-0.5 0.2 1 0.1 2.7 0.3 3.7 0.3 0 0.6-0.3 0.7-0.6q0.1-1.9 0.2-3.7c0-0.3-0.1-0.7-0.6-0.7-0.3 0-0.6 0.3-0.6 0.6v0.7c0 0-1.1 0.2-1.2 0.1z"/><path class="z" d="m420.4 82.1c2.3 0 4.1 1.8 4.1 4.1 0 2.2-1.8 4-4.1 4-2.2 0-4.1-1.8-4.1-4 0-2.3 1.9-4.1 4.1-4.1z"/><path class="A" d="m421.9 88.4c2.2 0 4.1 1.8 4.1 4.1 0 2.2-1.9 4-4.1 4-2.3 0-4.1-1.8-4.1-4 0-2.3 1.8-4.1 4.1-4.1z"/><path class="B" d="m421.9 95c2.2 0 4.1 1.9 4.1 4.1 0 2.3-1.9 4.1-4.1 4.1-2.3 0-4.1-1.8-4.1-4.1 0-2.2 1.8-4.1 4.1-4.1z"/><path class="C" d="m420.8 102.4c2.2 0 4 1.9 4 4.1 0 2.3-1.8 4.1-4 4.1-2.3 0-4.1-1.8-4.1-4.1 0-2.2 1.8-4.1 4.1-4.1z"/><path class="D" d="m416.7 108.4c2.3 0 4.1 1.8 4.1 4 0 2.3-1.8 4.1-4.1 4.1-2.2 0-4.1-1.8-4.1-4.1 0-2.2 1.9-4 4.1-4z"/><path class="E" d="m411.5 114.3c2.3 0 4.1 1.8 4.1 4.1 0 2.2-1.8 4-4.1 4-2.2 0-4.1-1.8-4.1-4 0-2.3 1.9-4.1 4.1-4.1z"/><path class="F" d="m414.7 110c0.4-0.4 1-0.5 1.1-0.3 0.2 0.1-0.1 0.6-0.6 1-0.5 0.4-1 0.5-1.1 0.3-0.2-0.1 0.1-0.6 0.6-1z"/><path class="G" d="m409.5 116c0.5-0.5 1-0.6 1.2-0.5 0.1 0.2-0.1 0.7-0.6 1.1-0.5 0.4-1 0.6-1.1 0.4-0.2-0.2 0.1-0.6 0.5-1z"/><path class="H" d="m418.5 104.1c0.5-0.4 1-0.5 1.2-0.4 0.1 0.2-0.1 0.7-0.6 1.1-0.5 0.4-1 0.6-1.1 0.4-0.2-0.2 0-0.7 0.5-1.1z"/><path class="I" d="m419.5 97.1c0.4-0.5 0.8-0.7 1-0.6 0.2 0.2 0 0.7-0.3 1.2-0.4 0.4-0.9 0.7-1.1 0.6-0.2-0.2 0-0.7 0.4-1.2z"/><path class="J" d="m419 91.3c0.2-0.6 0.6-1 0.8-0.9 0.2 0.1 0.2 0.6 0 1.2-0.2 0.6-0.6 0.9-0.8 0.9-0.3-0.1-0.3-0.7 0-1.2z"/><path class="K" d="m418.2 83.7c0.4-0.5 0.9-0.7 1.1-0.6 0.2 0.2 0 0.7-0.4 1.1-0.4 0.5-0.9 0.7-1.1 0.6-0.2-0.2 0-0.7 0.4-1.1z"/></svg>